<svg width="512" height="512" viewBox="0 0 512 512" xmlns="http://www.w3.org/2000/svg">
  <defs>
    <linearGradient id="bg" x1="0%" y1="0%" x2="100%" y2="100%">
      <stop offset="0%" stop-color="#064e3b"/>
      <stop offset="100%" stop-color="#0f766e"/>
    </linearGradient>
    <linearGradient id="flame-green" x1="256" y1="96" x2="256" y2="432" gradientUnits="userSpaceOnUse">
      <stop offset="0" stop-color="#34d399"/>
      <stop offset="0.55" stop-color="#22c55e"/>
      <stop offset="1" stop-color="#15803d"/>
    </linearGradient>
    <linearGradient id="flame-green-glow" x1="256" y1="180" x2="256" y2="400" gradientUnits="userSpaceOnUse">
      <stop offset="0" stop-color="#ecfdf3" stop-opacity="0.9"/>
      <stop offset="1" stop-color="#bbf7d0" stop-opacity="0.25"/>
    </linearGradient>
  </defs>
  <rect width="512" height="512" rx="128" fill="url(#bg)"/>
  <g transform="translate(0, 8)">
    <path
      d="M292 92c32 38 44 80 36 118-5.6 26-20.5 48-13 71 7.5 23 39.6 35.5 39.6 72.4 0 53.7-47.9 98.6-110.6 98.6-62.7 0-110.6-44.9-110.6-101.9 0-69.8 58.1-90.7 82.2-141.6 11.6-24.9 10.7-49 .9-75.2C209.2 117 216 92.5 233 72.5 252 51 283 40.5 292 92Z"
      fill="url(#flame-green)"
    />
    <path
      d="M274 168c16.6 20.4 26 43.9 18.2 66.9-4.7 14.9-16.5 30.9-10.3 44.6 6.2 13.7 25.6 20.7 25.6 42.8 0 31.6-28.9 58.7-63.9 58.7-35.1 0-63.9-26.1-63.9-59.7 0-41.4 33.6-54.4 48-83.2 7-14.2 6.1-28.1 1.3-42.5-4.8-14.3-.9-29 9.6-42.3 11.9-15 29.4-24.3 34.4 14.7Z"
      fill="url(#flame-green-glow)"
    />
  </g>
</svg>

